<?xml version="1.0" encoding="utf-8"?>
<!-- Generator: Adobe Illustrator 26.0.0, SVG Export Plug-In . SVG Version: 6.00 Build 0)  -->
<svg version="1.1" id="Layer_1" xmlns="http://www.w3.org/2000/svg" xmlns:xlink="http://www.w3.org/1999/xlink" x="0px" y="0px"
	 viewBox="0 0 239 63" style="enable-background:new 0 0 239 63;" xml:space="preserve">
<style type="text/css">
	.st0{fill:url(#SVGID_1_);}
	.st1{fill:#FFFFFF;}
	.st2{fill:url(#SVGID_00000101082873192421885230000005149234692360306566_);}
</style>
<linearGradient id="SVGID_1_" gradientUnits="userSpaceOnUse" x1="151.0044" y1="55.9584" x2="151.0044" y2="11.0416">
	<stop  offset="0" style="stop-color:#008FD3"/>
	<stop  offset="0.0613" style="stop-color:#0092D5"/>
	<stop  offset="0.6473" style="stop-color:#00ACE9"/>
	<stop  offset="1" style="stop-color:#00B5F0"/>
</linearGradient>
<path class="st0" d="M225.51,55.96H75.01V11.04h150.5c0.82,0,1.49,0.67,1.49,1.49v41.94C227,55.29,226.33,55.96,225.51,55.96z"/>
<g>
	<path class="st1" d="M101.14,33.02v5.48c0,0.29-0.09,0.52-0.27,0.71c-0.18,0.18-0.41,0.28-0.7,0.28s-0.52-0.1-0.71-0.29
		c-0.19-0.19-0.28-0.42-0.28-0.7v-5.46c0-1.79-0.75-2.69-2.26-2.69c-0.53,0-1.02,0.12-1.45,0.36c-0.43,0.24-0.77,0.56-1.01,0.98
		c-0.24,0.41-0.36,0.86-0.36,1.36v5.46c0,0.27-0.09,0.51-0.28,0.7c-0.18,0.19-0.42,0.29-0.71,0.29s-0.52-0.09-0.7-0.28
		c-0.18-0.18-0.27-0.42-0.27-0.71v-5.48c0-0.81-0.17-1.45-0.51-1.94c-0.34-0.49-0.91-0.73-1.7-0.73c-0.81,0-1.48,0.26-2,0.77
		c-0.53,0.51-0.79,1.15-0.79,1.9v5.48c0,0.27-0.09,0.51-0.28,0.7c-0.19,0.19-0.42,0.29-0.71,0.29s-0.52-0.09-0.7-0.28
		c-0.18-0.18-0.27-0.42-0.27-0.71v-8.79c0-0.27,0.09-0.51,0.28-0.7c0.18-0.19,0.41-0.29,0.69-0.29c0.29,0,0.52,0.1,0.71,0.29
		s0.28,0.42,0.28,0.7v0.72c0.36-0.53,0.83-0.98,1.43-1.35s1.24-0.54,1.94-0.54c1.7,0,2.8,0.75,3.31,2.26c0.3-0.57,0.8-1.1,1.5-1.56
		c0.7-0.47,1.44-0.7,2.22-0.7C99.94,28.54,101.14,30.03,101.14,33.02z"/>
	<path class="st1" d="M113.49,28.86c0.18,0.19,0.28,0.43,0.28,0.73v8.91c0,0.27-0.09,0.51-0.28,0.7c-0.19,0.19-0.42,0.29-0.71,0.29
		s-0.52-0.09-0.7-0.28c-0.18-0.18-0.27-0.42-0.27-0.71v-0.53c-0.36,0.48-0.84,0.89-1.46,1.22s-1.28,0.5-1.99,0.5
		c-0.93,0-1.78-0.24-2.54-0.72c-0.76-0.48-1.36-1.15-1.79-2c-0.43-0.86-0.65-1.82-0.65-2.89c0-1.07,0.22-2.03,0.65-2.89
		c0.43-0.86,1.02-1.52,1.78-2c0.75-0.48,1.58-0.72,2.49-0.72c0.73,0,1.4,0.15,2.02,0.45c0.62,0.3,1.12,0.69,1.49,1.15v-0.49
		c0-0.29,0.09-0.53,0.27-0.72c0.18-0.19,0.41-0.29,0.7-0.29S113.31,28.67,113.49,28.86z M110.31,37.39c0.5-0.33,0.89-0.78,1.17-1.36
		c0.28-0.58,0.42-1.23,0.42-1.95c0-0.71-0.14-1.36-0.42-1.93s-0.67-1.03-1.17-1.37c-0.5-0.34-1.07-0.5-1.72-0.5
		s-1.22,0.16-1.71,0.49c-0.5,0.33-0.89,0.78-1.17,1.36c-0.28,0.57-0.42,1.23-0.42,1.95c0,0.73,0.14,1.38,0.42,1.95
		c0.28,0.57,0.67,1.03,1.17,1.36c0.5,0.33,1.07,0.49,1.71,0.49S109.81,37.72,110.31,37.39z"/>
	<path class="st1" d="M125.84,32.92v5.59c0,0.27-0.09,0.51-0.28,0.7c-0.18,0.19-0.42,0.29-0.71,0.29c-0.27,0-0.5-0.1-0.69-0.29
		c-0.19-0.19-0.28-0.42-0.28-0.7v-5.57c0-0.81-0.18-1.45-0.55-1.93c-0.37-0.48-0.97-0.72-1.81-0.72c-0.55,0-1.04,0.12-1.49,0.36
		c-0.44,0.24-0.79,0.56-1.05,0.97s-0.38,0.85-0.38,1.32v5.57c0,0.27-0.09,0.51-0.28,0.7c-0.19,0.19-0.42,0.29-0.71,0.29
		s-0.52-0.09-0.7-0.28c-0.18-0.18-0.27-0.42-0.27-0.71v-8.79c0-0.27,0.09-0.51,0.28-0.7c0.18-0.19,0.41-0.29,0.69-0.29
		c0.29,0,0.52,0.1,0.71,0.29s0.28,0.42,0.28,0.7v0.72c0.36-0.55,0.85-1.01,1.49-1.39s1.32-0.56,2.04-0.56
		C124.61,28.48,125.84,29.96,125.84,32.92z"/>
	<path class="st1" d="M138.2,28.86c0.18,0.19,0.28,0.43,0.28,0.73v8.91c0,0.27-0.09,0.51-0.28,0.7c-0.18,0.19-0.42,0.29-0.71,0.29
		c-0.29,0-0.52-0.09-0.7-0.28s-0.27-0.42-0.27-0.71v-0.53c-0.36,0.48-0.84,0.89-1.46,1.22s-1.28,0.5-1.99,0.5
		c-0.93,0-1.78-0.24-2.54-0.72c-0.76-0.48-1.36-1.15-1.79-2c-0.43-0.86-0.65-1.82-0.65-2.89c0-1.07,0.22-2.03,0.65-2.89
		c0.43-0.86,1.02-1.52,1.78-2c0.75-0.48,1.58-0.72,2.49-0.72c0.73,0,1.4,0.15,2.02,0.45c0.62,0.3,1.12,0.69,1.49,1.15v-0.49
		c0-0.29,0.09-0.53,0.27-0.72c0.18-0.19,0.41-0.29,0.7-0.29C137.78,28.58,138.01,28.67,138.2,28.86z M135.02,37.39
		c0.5-0.33,0.89-0.78,1.17-1.36c0.28-0.58,0.42-1.23,0.42-1.95c0-0.71-0.14-1.36-0.42-1.93c-0.28-0.58-0.67-1.03-1.17-1.37
		c-0.5-0.34-1.07-0.5-1.71-0.5c-0.64,0-1.22,0.16-1.72,0.49s-0.89,0.78-1.17,1.36c-0.28,0.57-0.42,1.23-0.42,1.95
		c0,0.73,0.14,1.38,0.42,1.95c0.28,0.57,0.67,1.03,1.17,1.36c0.5,0.33,1.07,0.49,1.72,0.49C133.94,37.89,134.52,37.72,135.02,37.39z
		"/>
	<path class="st1" d="M151.08,28.86c0.19,0.19,0.28,0.43,0.28,0.73v9.04c0,1.11-0.24,2.04-0.71,2.78c-0.47,0.75-1.11,1.3-1.92,1.65
		c-0.81,0.36-1.72,0.53-2.73,0.53c-0.55,0-1.19-0.1-1.92-0.29s-1.2-0.39-1.41-0.6c-0.42-0.22-0.64-0.49-0.64-0.82
		c0-0.08,0.03-0.19,0.08-0.33c0.15-0.34,0.4-0.51,0.76-0.51c0.18,0,0.37,0.04,0.58,0.12c1.09,0.42,1.95,0.64,2.57,0.64
		c1.09,0,1.93-0.26,2.52-0.79s0.87-1.25,0.87-2.17v-1.11c-0.29,0.53-0.77,0.99-1.45,1.38c-0.68,0.38-1.39,0.58-2.15,0.58
		c-0.94,0-1.81-0.24-2.59-0.72c-0.78-0.48-1.39-1.15-1.84-2c-0.45-0.86-0.67-1.82-0.67-2.89c0-1.07,0.22-2.03,0.67-2.89
		c0.44-0.86,1.05-1.52,1.83-2c0.77-0.48,1.63-0.72,2.56-0.72c0.75,0,1.46,0.17,2.11,0.51s1.16,0.76,1.53,1.25v-0.66
		c0-0.29,0.09-0.53,0.27-0.72c0.18-0.19,0.41-0.29,0.7-0.29C150.66,28.58,150.89,28.67,151.08,28.86z M147.82,37.4
		c0.52-0.32,0.93-0.77,1.22-1.36c0.29-0.58,0.44-1.24,0.44-1.96c0-0.73-0.15-1.38-0.44-1.95c-0.29-0.58-0.7-1.03-1.22-1.36
		c-0.52-0.33-1.12-0.49-1.79-0.49c-0.66,0-1.25,0.16-1.77,0.49s-0.93,0.78-1.22,1.37c-0.29,0.58-0.44,1.23-0.44,1.94
		s0.15,1.36,0.44,1.94c0.29,0.58,0.7,1.04,1.22,1.37c0.52,0.33,1.11,0.49,1.77,0.49C146.71,37.89,147.3,37.73,147.82,37.4z"/>
	<path class="st1" d="M162.98,34.32c-0.19,0.17-0.42,0.26-0.68,0.26h-7.23c0.1,1,0.48,1.8,1.14,2.4c0.66,0.6,1.47,0.9,2.43,0.9
		c0.66,0,1.19-0.09,1.6-0.29c0.41-0.19,0.77-0.44,1.09-0.74c0.21-0.12,0.4-0.18,0.6-0.18c0.23,0,0.43,0.08,0.59,0.25
		c0.16,0.16,0.24,0.36,0.24,0.58c0,0.29-0.14,0.55-0.41,0.78c-0.4,0.4-0.92,0.73-1.58,1.01c-0.66,0.27-1.33,0.41-2.01,0.41
		c-1.11,0-2.08-0.23-2.93-0.7c-0.84-0.46-1.49-1.12-1.95-1.95c-0.46-0.83-0.69-1.78-0.69-2.83c0-1.15,0.24-2.16,0.71-3.03
		s1.1-1.54,1.87-2c0.77-0.47,1.61-0.7,2.5-0.7c0.88,0,1.7,0.23,2.46,0.68c0.77,0.45,1.38,1.08,1.85,1.87
		c0.47,0.79,0.71,1.68,0.72,2.67C163.27,33.94,163.17,34.15,162.98,34.32z M156.26,30.93c-0.56,0.43-0.93,1.1-1.11,2h6.06v-0.16
		c-0.07-0.73-0.39-1.32-0.98-1.79c-0.58-0.47-1.24-0.7-1.98-0.7C157.49,30.29,156.83,30.5,156.26,30.93z"/>
	<path class="st1" d="M181.49,33.02v5.48c0,0.29-0.09,0.52-0.27,0.71s-0.41,0.28-0.7,0.28c-0.29,0-0.52-0.1-0.71-0.29
		c-0.19-0.19-0.28-0.42-0.28-0.7v-5.46c0-1.79-0.75-2.69-2.26-2.69c-0.53,0-1.02,0.12-1.45,0.36c-0.43,0.24-0.77,0.56-1.01,0.98
		c-0.24,0.41-0.36,0.86-0.36,1.36v5.46c0,0.27-0.09,0.51-0.28,0.7c-0.19,0.19-0.42,0.29-0.71,0.29c-0.29,0-0.52-0.09-0.7-0.28
		c-0.18-0.18-0.27-0.42-0.27-0.71v-5.48c0-0.81-0.17-1.45-0.51-1.94c-0.34-0.49-0.91-0.73-1.71-0.73c-0.81,0-1.48,0.26-2,0.77
		c-0.53,0.51-0.79,1.15-0.79,1.9v5.48c0,0.27-0.09,0.51-0.28,0.7c-0.18,0.19-0.42,0.29-0.71,0.29c-0.29,0-0.52-0.09-0.7-0.28
		c-0.18-0.18-0.27-0.42-0.27-0.71v-8.79c0-0.27,0.09-0.51,0.28-0.7c0.19-0.19,0.41-0.29,0.69-0.29c0.29,0,0.52,0.1,0.71,0.29
		c0.19,0.19,0.28,0.42,0.28,0.7v0.72c0.36-0.53,0.83-0.98,1.43-1.35s1.24-0.54,1.94-0.54c1.7,0,2.8,0.75,3.31,2.26
		c0.3-0.57,0.8-1.1,1.5-1.56c0.7-0.47,1.44-0.7,2.22-0.7C180.29,28.54,181.49,30.03,181.49,33.02z"/>
	<path class="st1" d="M193.54,34.32c-0.19,0.17-0.42,0.26-0.68,0.26h-7.23c0.1,1,0.48,1.8,1.14,2.4c0.66,0.6,1.47,0.9,2.43,0.9
		c0.66,0,1.19-0.09,1.6-0.29c0.41-0.19,0.77-0.44,1.09-0.74c0.21-0.12,0.4-0.18,0.6-0.18c0.23,0,0.43,0.08,0.59,0.25
		c0.16,0.16,0.24,0.36,0.24,0.58c0,0.29-0.14,0.55-0.41,0.78c-0.4,0.4-0.92,0.73-1.58,1.01c-0.66,0.27-1.33,0.41-2.01,0.41
		c-1.11,0-2.08-0.23-2.93-0.7c-0.84-0.46-1.49-1.12-1.95-1.95c-0.46-0.83-0.69-1.78-0.69-2.83c0-1.15,0.24-2.16,0.71-3.03
		s1.1-1.54,1.87-2c0.77-0.47,1.61-0.7,2.5-0.7c0.88,0,1.7,0.23,2.46,0.68c0.77,0.45,1.38,1.08,1.85,1.87
		c0.47,0.79,0.71,1.68,0.72,2.67C193.84,33.94,193.73,34.15,193.54,34.32z M186.83,30.93c-0.56,0.43-0.93,1.1-1.11,2h6.06v-0.16
		c-0.07-0.73-0.39-1.32-0.98-1.79c-0.58-0.47-1.24-0.7-1.98-0.7C188.05,30.29,187.39,30.5,186.83,30.93z"/>
	<path class="st1" d="M205.29,32.92v5.59c0,0.27-0.09,0.51-0.28,0.7c-0.18,0.19-0.42,0.29-0.71,0.29c-0.27,0-0.5-0.1-0.69-0.29
		c-0.19-0.19-0.28-0.42-0.28-0.7v-5.57c0-0.81-0.18-1.45-0.55-1.93c-0.37-0.48-0.97-0.72-1.81-0.72c-0.55,0-1.04,0.12-1.49,0.36
		c-0.45,0.24-0.79,0.56-1.05,0.97c-0.25,0.4-0.38,0.85-0.38,1.32v5.57c0,0.27-0.09,0.51-0.28,0.7c-0.18,0.19-0.42,0.29-0.71,0.29
		c-0.29,0-0.52-0.09-0.7-0.28c-0.18-0.18-0.27-0.42-0.27-0.71v-8.79c0-0.27,0.09-0.51,0.28-0.7c0.19-0.19,0.41-0.29,0.69-0.29
		c0.29,0,0.52,0.1,0.71,0.29c0.19,0.19,0.28,0.42,0.28,0.7v0.72c0.36-0.55,0.85-1.01,1.49-1.39s1.32-0.56,2.04-0.56
		C204.06,28.48,205.29,29.96,205.29,32.92z"/>
	<path class="st1" d="M211.12,30.64v6.12c0,0.68,0.31,1.03,0.92,1.03c0.1,0,0.23-0.02,0.39-0.07s0.29-0.07,0.39-0.07
		c0.18,0,0.33,0.08,0.45,0.23c0.12,0.15,0.19,0.34,0.19,0.58c0,0.29-0.17,0.53-0.49,0.74c-0.33,0.21-0.7,0.31-1.11,0.31
		c-0.45,0-0.87-0.05-1.24-0.14c-0.38-0.1-0.71-0.34-1.01-0.73c-0.29-0.39-0.44-0.98-0.44-1.78v-6.2h-1.19
		c-0.26,0-0.48-0.09-0.65-0.26c-0.17-0.17-0.26-0.39-0.26-0.65c0-0.26,0.08-0.47,0.26-0.64c0.17-0.16,0.39-0.25,0.65-0.25h1.19
		v-1.73c0-0.27,0.09-0.51,0.28-0.7c0.18-0.19,0.42-0.29,0.71-0.29c0.27,0,0.5,0.1,0.69,0.29c0.18,0.19,0.28,0.42,0.28,0.7v1.73h1.71
		c0.26,0,0.48,0.09,0.65,0.26c0.17,0.17,0.26,0.39,0.26,0.65c0,0.26-0.09,0.47-0.26,0.64c-0.17,0.16-0.39,0.25-0.65,0.25H211.12z"/>
</g>
<linearGradient id="SVGID_00000000900964874162158250000001649640831267540358_" gradientUnits="userSpaceOnUse" x1="43.8733" y1="55.9584" x2="43.8733" y2="11.0416">
	<stop  offset="0" style="stop-color:#00A0E1"/>
	<stop  offset="1" style="stop-color:#00A6E3"/>
</linearGradient>
<path style="fill:url(#SVGID_00000000900964874162158250000001649640831267540358_);" d="M75.01,55.96H14.25
	c-0.83,0-1.51-0.68-1.51-1.51v-41.9c0-0.83,0.68-1.51,1.51-1.51h60.76V55.96z"/>
<path class="st1" d="M60.73,42.57c0.32,0.78,0.37,1.4,0.19,1.84c-0.19,0.46-0.51,0.7-0.94,0.7c-0.39,0-0.87,0-1.43,0.02
	c-0.56,0-0.9,0.02-1.02,0.02c-0.48,0-0.95-0.17-1.4-0.53c-0.44-0.34-0.92-1.01-1.45-1.96l-4.87-9.14h3.53
	c0.34,0,0.68-0.05,1.06-0.17c0.36-0.1,0.72-0.27,1.09-0.51c0.37-0.24,0.68-0.6,0.94-1.06c0.26-0.46,0.38-0.99,0.38-1.62
	c0.09-2.2-1.41-3.29-4.47-3.29H45.8v17.11c0,0.31-0.12,0.58-0.36,0.82c-0.22,0.22-0.49,0.34-0.8,0.34H41.9c-0.09,0-0.15,0-0.24-0.02
	c-0.14-0.03-0.27-0.09-0.39-0.17c-0.05-0.05-0.12-0.1-0.17-0.15c-0.1-0.12-0.19-0.24-0.24-0.38c-0.05-0.14-0.09-0.29-0.09-0.44
	v-7.93h-10V44c0,0.34-0.09,0.61-0.27,0.84c-0.17,0.2-0.43,0.32-0.73,0.32h-2.9c-0.34,0-0.61-0.1-0.82-0.31
	c-0.22-0.2-0.34-0.49-0.34-0.85V23c0-0.34,0.1-0.61,0.27-0.82c0.19-0.2,0.43-0.31,0.75-0.31l2.88-0.03c0.32,0,0.58,0.1,0.82,0.32
	c0.22,0.22,0.34,0.49,0.34,0.84v7.98h10v-7.96c0-0.09,0.02-0.17,0.02-0.26c0.05-0.2,0.15-0.41,0.31-0.56c0.1-0.1,0.24-0.2,0.36-0.26
	c0.05-0.02,0.1-0.03,0.15-0.05c0.07-0.02,0.14-0.02,0.2-0.02l1.45-0.02h10.07c0.1,0,0.26,0,0.46,0.02c0.2,0.02,0.6,0.05,1.19,0.14
	c0.58,0.09,1.14,0.22,1.67,0.39c0.53,0.15,1.12,0.44,1.77,0.85c0.65,0.41,1.19,0.9,1.65,1.45c0.46,0.56,0.85,1.3,1.18,2.2
	c0.32,0.92,0.49,1.96,0.49,3.1c0,3.44-1.59,5.64-4.74,6.58L60.73,42.57z"/>
</svg>
